<svg version="1.2" xmlns="http://www.w3.org/2000/svg" viewBox="0 0 1920 1080" width="1920" height="1080">
	<style>
		.s0 { fill: #00d639 } 
	</style>
	<g id="Logo_x2C__16:9">
		<g>
			<path class="s0" d="m212.18 0c120.12 0 217.8 83.08 220.04 198.7 1.13 32.55-22.45 50.53-48.27 50.53-24.7 0-46.02-17.96-47.15-48.28-1.13-65.13-56.13-113.4-125.75-113.4-65.12 0-114.5 46.03-114.5 108.9 0 68.47 46.03 98.8 141.45 133.6 102.15 37.05 195.35 80.82 195.35 211.05 0 113.4-88.7 204.32-212.17 204.32-121.25 0-221.18-85.32-221.18-200.95 0-71.85 34.8-122.37 68.48-122.37 29.2 0 47.15 19.07 47.15 44.9 0 22.45-19.08 32.55-19.08 72.98 0 71.85 58.38 117.87 124.63 117.87 69.6 0 115.62-48.27 115.62-106.65 0-71.85-46.02-102.15-141.45-135.85-106.65-38.13-195.35-84.17-195.35-211.02 0-114.5 92.05-204.33 212.18-204.33z"/>
			<path class="s0" d="m702.13 745.45c-121.25 0-222.28-97.68-222.28-221.18 0-127.97 102.15-223.4 225.65-223.4 132.48 0 225.65 98.8 225.65 233.53v163.9c0 28.07-22.45 47.15-48.27 47.15-26.95 0-49.4-19.08-49.4-47.15v-160.55c0-88.7-50.53-149.33-130.23-149.33-70.72 0-126.85 59.51-126.85 135.86 0 70.72 55 131.34 124.63 131.34 25.82 0 37.05-6.72 52.77-6.72 21.33 0 43.78 17.95 43.78 43.77-0.03 34.8-41.58 52.78-95.46 52.78z"/>
			<path class="s0" d="m1207.77 1080c-125.75 0-230.15-89.82-230.15-206.58 0-39.29 22.45-57.24 48.28-57.24 25.82 0 47.15 16.85 48.27 49.4 1.13 72.97 59.5 126.85 132.48 126.85 77.47 0 127.97-49.4 127.97-113.4 0-72.98-56.12-103.28-151.54-133.6-111.16-35.93-205.46-85.33-205.46-222.28 0-125.75 96.55-222.27 222.28-222.27 126.85 0 231.28 92.05 231.28 213.3 0 74.1-30.3 131.35-71.85 131.35-28.08 0-47.15-20.2-47.15-44.9 0-25.83 22.45-37.06 22.45-83.08 0-77.48-60.63-129.1-133.6-129.1-70.73 0-126.85 53.9-126.85 124.63 0 79.7 57.25 113.4 151.54 144.82 108.9 35.92 205.46 80.83 205.46 212.17 0 117.88-93.18 209.93-223.41 209.93z"/>
			<path class="s0" d="m1706.7 745.45c-125.75 0-229.02-98.8-229.02-222.28 0-123.5 99.92-222.27 223.4-222.27 124.62 0 218.92 86.45 218.92 196.48 0 42.64-30.3 68.47-79.7 68.47h-129.1c-25.83 0-44.9-17.95-44.9-41.55 0-22.45 19.07-40.42 44.9-40.42h96.55c8.97 0 15.72-4.5 15.72-13.48 0-32.55-41.55-83.07-119-83.07-71.85 0-130.22 61.75-130.22 135.85 0 75.22 59.5 134.72 133.6 134.72 85.32 0 113.4-50.52 148.2-50.52 29.2 0 44.9 19.07 44.9 40.42 0 20.2-13.48 38.17-47.15 59.5-33.73 21.3-84.23 38.15-147.1 38.15z"/>
		</g>
	</g>
</svg>